<?xml version="1.0" encoding="UTF-8"?>
<!DOCTYPE svg PUBLIC "-//W3C//DTD SVG 1.1//EN" "http://www.w3.org/Graphics/SVG/1.1/DTD/svg11.dtd">
<!-- Creator: CorelDRAW -->
<svg xmlns="http://www.w3.org/2000/svg" xml:space="preserve" width="512px" height="512px" version="1.1" style="shape-rendering:geometricPrecision; text-rendering:geometricPrecision; image-rendering:optimizeQuality; fill-rule:evenodd; clip-rule:evenodd"
viewBox="0 0 512 512"
 xmlns:xlink="http://www.w3.org/1999/xlink">
 <defs>
  <style type="text/css">
   <![CDATA[
    .fil0 {fill:black}
   ]]>
  </style>
 </defs>
 <g id="Layer_x0020_1">
  <metadata id="CorelCorpID_0Corel-Layer"/>
  <g id="_597575344">
   <g>
    <g>
     <path class="fil0" d="M375 410c-40,0 -73,-32 -73,-73 0,-40 33,-73 73,-73 40,0 73,33 73,73 0,41 -33,73 -73,73zm0 -132c-32,0 -59,27 -59,59 0,33 27,59 59,59 32,0 59,-26 59,-59 0,-32 -27,-59 -59,-59z"/>
    </g>
    <g>
     <path class="fil0" d="M404 474l-43 0c-4,0 -8,-3 -8,-7 0,-5 4,-8 8,-8l36 0 0 -37c0,-2 1,-5 4,-6l3 -1c3,-2 5,-3 8,-4 3,-1 6,-1 8,1l26 26 31 -30 -26 -26c-2,-2 -3,-6 -1,-9 1,-3 2,-6 4,-10 1,-3 3,-5 7,-5l37 0 0 -42 -37 0c-4,0 -6,-3 -7,-5 -2,-4 -3,-8 -4,-10 -2,-3 -1,-7 1,-9l26 -26 -30 -31 -26 26c-2,2 -6,3 -9,2 -2,-2 -6,-3 -9,-5 -3,0 -5,-3 -5,-7l0 -37 -44 0 0 38c0,3 -2,6 -5,7 -4,1 -7,2 -10,4 -3,1 -6,1 -9,-1l-26 -27 -31 31 27 26c2,2 3,6 1,9 -1,2 -3,5 -4,8l-1 2c-1,3 -3,5 -6,5l-37 0 0 12c0,4 -4,7 -8,7 -4,0 -7,-3 -7,-7l0 -19c0,-4 3,-8 7,-8l40 0c0,0 0,-1 1,-2l-28 -27c-2,-1 -2,-4 -2,-5 0,-2 0,-4 2,-5l40 -41c2,-2 4,-2 5,-2 0,0 0,0 0,0 3,0 4,0 5,2l29 27c1,-1 1,-1 2,-1l0 -39c0,-4 3,-8 7,-8l58 0c4,0 8,4 8,8l0 39c0,0 1,0 2,1l27 -28c1,-1 4,-2 5,-2 0,0 0,0 0,0 2,0 4,1 5,2l41 41c2,1 2,3 2,5 0,2 0,4 -2,5l-27 27c0,1 0,2 0,3l39 0c5,0 8,3 8,7l0 58c0,4 -3,7 -8,7l-38 0c-1,1 -1,2 -1,2l28 28c1,2 2,4 2,5 0,2 -1,4 -2,5l-41 41c-2,1 -4,2 -5,2 0,0 0,0 0,0 -2,0 -4,-1 -5,-2l-28 -27c-1,0 -2,0 -2,0l0 40c0,4 -4,7 -8,7z"/>
    </g>
    <g>
     <path class="fil0" d="M185 290c-22,0 -44,-6 -56,-18 -11,-11 -27,-36 -35,-50 -5,-10 -9,-14 -13,-18 -8,-9 -11,-14 -11,-38 0,-4 2,-8 5,-10 3,-3 6,-4 10,-4l0 -17c0,-4 3,-8 7,-8 4,0 8,4 8,8l0 25c0,2 -1,4 -3,6 -2,1 -4,2 -6,1 -2,0 -4,0 -6,0 0,20 2,22 7,28 4,4 9,9 15,20 13,23 25,40 32,48 18,17 75,17 93,0 7,-7 19,-25 32,-48 7,-11 12,-16 15,-20 5,-6 7,-7 7,-27 -1,-1 -4,0 -6,0 -2,0 -4,0 -6,-2 -2,-1 -3,-3 -3,-6l0 -25c0,-4 4,-7 8,-7 4,0 7,3 7,7l0 17c4,0 7,1 10,3 3,3 5,7 5,10 0,25 -3,30 -11,39 -4,3 -8,7 -13,17 -9,14 -24,40 -35,50 -12,13 -34,19 -57,19z"/>
    </g>
    <g>
     <path class="fil0" d="M301 142l-231 0c-5,0 -8,-3 -8,-8l0 -31c0,-4 3,-7 8,-7l83 0c4,0 8,3 8,7 0,4 -4,7 -8,7l-76 0 0 17 217 0 0 -16 -76 0c-4,0 -8,-4 -8,-7 0,-4 4,-8 8,-8l83 0c5,0 8,4 8,8l0 31c-1,4 -4,7 -8,7z"/>
    </g>
    <g>
     <path class="fil0" d="M270 111c-4,0 -7,-4 -7,-7 0,-43 -35,-78 -78,-78 -42,0 -77,34 -77,77 0,4 -3,7 -8,7 -4,0 -7,-3 -7,-7 0,-51 41,-92 91,-92 51,0 92,41 92,92 1,4 -2,8 -6,8z"/>
    </g>
    <g>
     <path class="fil0" d="M185 142c-21,0 -39,-18 -39,-40 0,-22 17,-39 39,-39 22,0 40,18 40,39 0,22 -18,40 -40,40zm0 -65c-13,0 -25,12 -25,25 0,14 12,25 25,25 14,0 25,-11 25,-25 0,-13 -11,-25 -25,-25z"/>
    </g>
    <g>
     <path class="fil0" d="M185 77c-4,0 -7,-3 -7,-7l0 -52c0,-4 3,-8 7,-8 4,0 8,4 8,8l0 52c-1,5 -4,7 -8,7z"/>
    </g>
    <g>
     <path class="fil0" d="M363 502c-4,0 -8,-4 -8,-8 0,-81 -57,-151 -137,-167 -4,-1 -6,-4 -6,-9 1,-3 5,-6 9,-5 87,17 149,93 149,181 0,4 -3,8 -7,8zm-355 0c-5,0 -8,-4 -8,-8 0,-88 63,-164 149,-181 4,-1 8,1 9,5 1,4 -1,8 -6,9 -80,16 -137,86 -137,167 0,4 -3,8 -7,8z"/>
    </g>
    <g>
     <path class="fil0" d="M185 362c-23,0 -41,-19 -41,-42l0 -43c0,-4 3,-8 7,-8 4,0 8,4 8,8l0 43c0,15 12,27 27,27 15,0 27,-12 27,-27l0 -43c0,-4 3,-8 7,-8 4,0 8,4 8,8l0 43c-1,23 -20,42 -43,42z"/>
    </g>
    <g>
     <path class="fil0" d="M363 502l-355 0c-5,0 -8,-4 -8,-8 0,-4 3,-7 8,-7l355 0c4,0 7,3 7,7 0,4 -3,8 -7,8z"/>
    </g>
    <g>
     <path class="fil0" d="M107 502l-39 0c-4,0 -7,-4 -7,-8l0 -134c0,-4 3,-7 7,-7 4,0 8,3 8,7l0 127 24 0 0 -152c0,-5 3,-8 7,-8 4,0 7,3 7,8l0 159c0,4 -3,8 -7,8z"/>
    </g>
    <g>
     <path class="fil0" d="M302 502l-39 0c-4,0 -7,-4 -7,-8l0 -159c0,-5 3,-8 7,-8 5,0 8,3 8,8l0 152 24 0 0 -127c0,-4 3,-7 8,-7 4,0 7,3 7,7l0 134c0,4 -4,8 -8,8z"/>
    </g>
   </g>
  </g>
 </g>
</svg>
