<?xml version="1.0" encoding="UTF-8" standalone="no"?> <svg xmlns="http://www.w3.org/2000/svg" viewBox="0 0 64 64"><g id="_02-Blueprint" data-name="02-Blueprint"><path id="path3062-56" d="M2,16l.002,39.00195A7.01233,7.01233,0,0,0,9,62l49.99806.00794a3.00948,3.00948,0,0,0,3.00391-2.9961V19.00194a3.02409,3.02409,0,0,0-3.00391-3.00586Z" fill="#68b1fc"/><path d="M58.99811,15.99609l-3.99732.00025A3.024,3.024,0,0,1,58.002,19.002V59.01184a3.00916,3.00916,0,0,1-2.99743,2.99548l3.99353.00061a3.00953,3.00953,0,0,0,3.0039-2.99609V19.002A3.02409,3.02409,0,0,0,58.99811,15.99609Z" fill="#539ffb"/><path id="path3073-0" d="M9,10a7.01522,7.01522,0,0,0-7,7V55A6.99087,6.99087,0,0,1,14.248,50.3828l.00755.00378a.99905.99905,0,0,0,1.74611-.66406V17a7.01523,7.01523,0,0,0-7-7Z" fill="#84c2fc"/><path id="path15168-3" d="M21.0039,23.998A1.00008,1.00008,0,0,0,20,25.00194v30a.99973.99973,0,0,0,1.00394.99609H54.99606a1.00134,1.00134,0,0,0,1.00584-.99609v-27.998A1.00339,1.00339,0,0,0,54.99606,25.998H49.00387a1.001,1.001,0,0,0,0,2.002H54V38.00194H41.0019V32.99608a1.001,1.001,0,1,0-2.00194,0v6.002a.99977.99977,0,0,0,.9961,1.0039H54V53.998H41.0019V45A1.001,1.001,0,1,0,39,45v8.998h-17V40.00194H32.998V47A1.001,1.001,0,0,0,35,47V38.998a.99915.99915,0,0,0-.99609-.9961H32.00193V30.99608a1.00008,1.00008,0,1,0-2,0v7.00586h-8.002V25.998H30.998a1,1,0,1,0,0-2Z" fill="#e7eaef"/><path id="path3100-42" d="M54.2363,3.32225,37.29486,20.293,43.71094,26.707,60.65231,9.73632Z" fill="#fcb860"/><path id="path3111-6" d="M44.20892,26.209l-6.416-6.416-.498.5a.999.999,0,0,0-.2793.54687L36.01168,26.834a1.00011,1.00011,0,0,0,1.15037,1.15039l6.00193-.99609a.99907.99907,0,0,0,.54684-.28125Z" fill="#fdd5a6"/><path id="path3109-2" d="M57,7,41,23l3.209,3.209L60.19533,10.1953Z" fill="#fcaa52"/><path id="path3104-4" d="M53.77926,3.77929l6.416,6.416.457-.459a4.53613,4.53613,0,0,0-6.416-6.41407Z" fill="#fc6067"/><path id="path3115-1" d="M36.416,24.416l-.40428,2.418a1.00008,1.00008,0,0,0,1.15042,1.15039L39.582,27.582Z" fill="#565d69"/></g></svg>