<?xml version="1.0" encoding="UTF-8"?>
<!DOCTYPE svg PUBLIC "-//W3C//DTD SVG 1.1//EN" "http://www.w3.org/Graphics/SVG/1.1/DTD/svg11.dtd">
<!-- Creator: CorelDRAW -->
<svg xmlns="http://www.w3.org/2000/svg" xml:space="preserve" width="512px" height="512px" version="1.1" style="shape-rendering:geometricPrecision; text-rendering:geometricPrecision; image-rendering:optimizeQuality; fill-rule:evenodd; clip-rule:evenodd"
viewBox="0 0 512 512"
 xmlns:xlink="http://www.w3.org/1999/xlink">
 <defs>
  <style type="text/css">
   <![CDATA[
    .fil0 {fill:black}
   ]]>
  </style>
 </defs>
 <g id="Layer_x0020_1">
  <metadata id="CorelCorpID_0Corel-Layer"/>
  <g id="_331711808">
   <g>
    <g>
     <path class="fil0" d="M79 324l-63 0c-9,0 -16,-7 -16,-16l0 -48c0,-9 7,-16 16,-16 5,0 8,4 8,8 0,4 -3,7 -8,7 0,0 -1,1 -1,2l0 47c0,1 1,2 1,2l63 0c1,0 1,-1 1,-2l0 -48c0,-1 -1,-1 -1,-1 -4,0 -8,-3 -8,-8 0,-4 4,-7 8,-7 9,0 16,7 16,16l0 48c0,9 -7,16 -16,16z"/>
    </g>
    <g>
     <path class="fil0" d="M240 324l-143 0c-9,0 -16,-7 -16,-16l0 -48c0,-9 7,-16 16,-16 4,0 7,4 7,8 0,4 -3,7 -7,7 -1,0 -2,1 -2,2l0 47c0,1 1,2 2,2l143 0c0,0 1,-1 1,-2l0 -48c0,-1 -1,-1 -1,-1 -5,0 -8,-3 -8,-8 0,-4 3,-7 8,-7 8,0 15,7 15,16l0 48c0,9 -7,16 -15,16z"/>
    </g>
    <g>
     <path class="fil0" d="M400 324l-143 0c-9,0 -16,-7 -16,-16l0 -48c0,-9 7,-16 16,-16 4,0 8,4 8,8 0,4 -4,7 -8,7 -1,0 -1,1 -1,2l0 47c0,1 1,2 1,2l143 0c1,0 1,-1 1,-2l0 -48c0,-1 0,-1 -1,-1l-71 0c-4,0 -7,-3 -7,-8 0,-4 3,-7 7,-7l71 0c9,0 16,7 16,16l0 48c0,9 -7,16 -16,16z"/>
    </g>
    <g>
     <path class="fil0" d="M400 389l-63 0c-8,0 -15,-7 -15,-16l0 -47c0,-9 7,-16 15,-16 5,0 8,3 8,7 0,4 -3,8 -8,8 0,0 -1,1 -1,1l0 48c0,1 1,1 1,1l63 0c1,0 1,-1 1,-1l0 -48c0,-1 0,-2 -1,-2 -4,0 -7,-3 -7,-7 0,-4 3,-8 7,-8 9,0 16,7 16,16l0 48c0,9 -7,16 -16,16z"/>
    </g>
    <g>
     <path class="fil0" d="M320 389l-143 0c-9,0 -17,-7 -17,-16l0 -47c0,-10 8,-16 17,-16 4,0 7,3 7,7 0,4 -3,8 -7,8 -1,0 -2,0 -2,1l0 48c0,1 1,1 2,1l143 0c1,0 1,-1 1,-1l0 -48c0,-1 -1,-2 -1,-2 -4,0 -8,-3 -8,-7 0,-4 4,-7 8,-7 9,0 16,7 16,16l0 47c0,9 -7,16 -16,16z"/>
    </g>
    <g>
     <path class="fil0" d="M159 389l-143 0c-9,0 -16,-7 -16,-16l0 -47c0,-10 7,-16 16,-16 5,0 8,3 8,7 0,4 -3,8 -8,8 0,0 -1,0 -1,1l0 48c0,1 1,1 1,1l143 0c1,0 1,-1 1,-1l0 -48c0,-1 0,-2 -1,-2 -4,0 -7,-3 -7,-7 0,-4 3,-8 7,-8 9,0 16,7 16,16l0 48c0,9 -7,16 -16,16z"/>
    </g>
    <g>
     <path class="fil0" d="M79 455l-63 0c-9,0 -16,-7 -16,-16l0 -48c0,-9 8,-16 16,-16 5,0 8,3 8,8 0,4 -3,7 -8,7 0,0 -1,0 -1,1l0 48c0,1 1,1 1,1l63 0c1,0 1,-1 1,-1l0 -48c0,-1 -1,-1 -1,-1 -4,0 -8,-4 -8,-8 0,-4 4,-7 8,-7 9,0 16,7 16,15l0 49c0,9 -7,16 -16,16z"/>
    </g>
    <g>
     <path class="fil0" d="M240 455l-143 0c-9,0 -16,-7 -16,-16l0 -48c0,-9 7,-16 16,-16 4,0 7,3 7,8 0,4 -3,7 -7,7 -1,0 -2,0 -2,1l0 48c0,1 1,1 2,1l143 0c0,0 1,-1 1,-1l0 -48c0,-1 -1,-1 -1,-1 -5,0 -8,-4 -8,-8 0,-4 3,-7 8,-7 8,0 15,7 15,15l0 49c0,9 -7,16 -15,16z"/>
    </g>
    <g>
     <path class="fil0" d="M400 455l-143 0c-9,0 -16,-7 -16,-16l0 -48c0,-9 7,-16 16,-16 4,0 8,3 8,8 0,4 -4,7 -8,7 -1,0 -1,1 -1,1l0 48c0,1 1,1 1,1l143 0c1,0 1,-1 1,-1l0 -48c0,-1 0,-1 -1,-1 -4,0 -7,-4 -7,-8 0,-4 3,-7 7,-7 9,0 16,7 16,15l0 49c0,9 -7,16 -16,16z"/>
    </g>
    <g>
     <path class="fil0" d="M159 259l-143 0c-9,0 -16,-8 -16,-16l0 -48c0,-9 8,-16 16,-16l143 0c9,0 16,7 16,16l0 47c0,9 -7,17 -16,17zm-143 -66c0,0 -1,1 -1,2l0 47c0,1 1,2 1,2l143 0c1,0 1,-1 1,-2l0 -47c0,-1 0,-2 -1,-2l-143 0z"/>
    </g>
    <g>
     <path class="fil0" d="M320 259l-143 0c-9,0 -17,-8 -17,-16l0 -48c0,-9 8,-16 17,-16l143 0c9,0 16,7 16,16l0 47c0,9 -7,17 -16,17zm-143 -66c-1,0 -2,1 -2,2l0 47c0,1 1,2 2,2l143 0c1,0 1,-1 1,-2l0 -47c0,-1 -1,-2 -1,-2l-143 0z"/>
    </g>
    <g>
     <g>
      <path class="fil0" d="M353 233c-2,0 -4,-1 -6,-3 -2,-2 -2,-5 -1,-8l39 -72c1,-3 6,-4 9,-3l40 17 48 19c3,1 5,4 5,7 0,3 -3,6 -6,7l-127 36c0,0 0,0 -1,0zm42 -70l-28 51 91 -25 -29 -12 -34 -14z"/>
     </g>
     <g>
      <path class="fil0" d="M431 178c-4,0 -7,-4 -7,-8l0 -32c0,-2 1,-3 2,-5l13 -13c3,-3 8,-3 11,0 3,3 3,7 0,10l-11 11 0 29c0,4 -3,8 -8,8z"/>
     </g>
     <g>
      <path class="fil0" d="M456 144c-2,0 -4,-1 -5,-2l-23 -22c-1,-1 -2,-3 -2,-5 0,-2 1,-4 2,-5l49 -50c3,-3 7,-3 10,0l23 22c1,1 2,3 2,5 0,2 -1,3 -2,5l-49 50c-1,1 -3,2 -5,2zm-13 -29l13 11 38 -39 -12 -12 -39 40z"/>
     </g>
    </g>
   </g>
  </g>
 </g>
</svg>
