<?xml version="1.0" encoding="utf-8"?>
<!-- Generator: Adobe Illustrator 23.0.2, SVG Export Plug-In . SVG Version: 6.00 Build 0)  -->
<svg version="1.1" id="Layer_1" xmlns="http://www.w3.org/2000/svg" xmlns:xlink="http://www.w3.org/1999/xlink" x="0px" y="0px"
	 viewBox="0 0 285.4278 248.3471" enable-background="new 0 0 285.4278 248.3471" xml:space="preserve">
<g>
	<path d="M226.7168,44.4077c-2.1308,0-3.8594,1.727-3.8594,3.8593c0,2.1324,1.7286,3.8594,3.8594,3.8594
		c2.1328,0,3.8613-1.727,3.8613-3.8594C230.5781,46.1347,228.8496,44.4077,226.7168,44.4077z"/>
	
		<rect x="246.0641" y="30.4633" transform="matrix(0.9322 -0.3619 0.3619 0.9322 -6.5821 94.1468)" width="3.9578" height="68.3632"/>
	<path d="M139.2871,106.0102c2.4043,0,4.3535-1.9497,4.3535-4.354c0-2.4048-1.9492-4.3545-4.3535-4.3545
		s-4.3535,1.9497-4.3535,4.3545C134.9336,104.0605,136.8828,106.0102,139.2871,106.0102z"/>
	<path d="M104.6699,154.0498c1.0997-1.0469,2.584-1.6934,4.2247-1.6934c3.3867,0,6.1347,2.7471,6.1347,6.1357
		c0,3.3887-2.748,6.1353-6.1347,6.1353c-3.3887,0-6.1368-2.7466-6.1368-6.1353c0-0.2944,0.0274-0.582,0.0684-0.8652
		c-1.0371,1.4483-2.3379,2.6919-3.8379,3.6543c-1.0156,1.9849-3.0762,3.3462-5.459,3.3462c-1.3808,0-2.6523-0.4614-3.6777-1.2314
		c-2.2695-0.252-4.3633-1.0464-6.1641-2.2471c-0.1758,0.3662-0.3867,0.7114-0.6308,1.0327v7.1626h74.4394
		c5.9024,0,10.6875-4.7847,10.6875-10.6875s-4.7851-10.6875-10.6875-10.6875h-51.9609c-0.0391,0.7808-0.0742,1.5522-0.1211,2.3408
		C105.3379,151.6157,105.0762,152.8671,104.6699,154.0498z M154.9883,152.3564c3.3887,0,6.1367,2.7471,6.1367,6.1357
		c0,3.3887-2.748,6.1353-6.1367,6.1353c-3.3887,0-6.1348-2.7466-6.1348-6.1353
		C148.8535,155.1035,151.5996,152.3564,154.9883,152.3564z M139.6231,152.3564c3.3886,0,6.1367,2.7471,6.1367,6.1357
		c0,3.3887-2.7481,6.1353-6.1367,6.1353c-3.3887,0-6.1348-2.7466-6.1348-6.1353
		C133.4883,155.1035,136.2344,152.3564,139.6231,152.3564z M124.2578,152.3564c3.3887,0,6.1368,2.7471,6.1368,6.1357
		c0,3.3887-2.7481,6.1353-6.1368,6.1353c-3.3886,0-6.1347-2.7466-6.1347-6.1353
		C118.1231,155.1035,120.8692,152.3564,124.2578,152.3564z"/>
	<path d="M108.8946,161.395c1.6015,0,2.9023-1.2993,2.9023-2.9029c0-1.6035-1.3008-2.9033-2.9023-2.9033
		c-1.6036,0-2.9043,1.2998-2.9043,2.9033C105.9903,160.0957,107.291,161.395,108.8946,161.395z"/>
	<path d="M124.2578,161.395c1.6036,0,2.9043-1.2993,2.9043-2.9029c0-1.6035-1.3007-2.9033-2.9043-2.9033
		c-1.6035,0-2.9023,1.2998-2.9023,2.9033C121.3555,160.0957,122.6543,161.395,124.2578,161.395z"/>
	<path d="M139.6231,161.395c1.6035,0,2.9043-1.2993,2.9043-2.9029c0-1.6035-1.3008-2.9033-2.9043-2.9033
		c-1.6035,0-2.9024,1.2998-2.9024,2.9033C136.7207,160.0957,138.0196,161.395,139.6231,161.395z"/>
	<path d="M154.9883,161.395c1.6035,0,2.9043-1.2993,2.9043-2.9029c0-1.6035-1.3008-2.9033-2.9043-2.9033
		s-2.9023,1.2998-2.9023,2.9033C152.086,160.0957,153.3848,161.395,154.9883,161.395z"/>
	<path d="M106.0176,130.7963c0,4.6963-0.123,9.6582-0.3594,14.7979h53.4258v-30.3638l26.1816-48.3388l33.8125-8.8975
		l24.3145,53.2944l4.3047-1.8452v4.9512h-18.2774l-9.8261-8.3843l-5.3614,2.7949l13.4004,22.3594h26.8028l2.6797-16.77h-2.9844
		v-7.7085l4.039-1.731l-29.0273-76.5293l-24.2773-1.5835l7.4453,16.3174l-37.7305,2.3584l-28.6562,40.7007l-36.2579-2.7026v11.9384
		h-6.6718C104.9981,105.3574,105.9981,117.0869,106.0176,130.7963z M226.7168,54.205c-3.2793,0-5.9375-2.6582-5.9375-5.938
		c0-3.2793,2.6582-5.9375,5.9375-5.9375c3.2813,0,5.9395,2.6582,5.9395,5.9375C232.6563,51.5468,229.9981,54.205,226.7168,54.205z
		 M147.2696,90.2885v18.8882h-19.7247V88.8183L147.2696,90.2885z"/>
	<rect x="165.4961" y="138.5498" width="119.9317" height="3.5625"/>
	<path d="M8.5742,157.4936c0.1563,0,0.3164-0.0039,0.4747-0.0137c4.4121-0.2597,7.7773-4.0449,7.5175-8.455
		C16.1758,142.3745,16,136.3159,16,130.8042c-0.0332-24.2188,3.4961-37.8204,6.9649-44.92v150.0996
		c0,6.8301,5.5371,12.3633,12.3632,12.3633c6.8282,0,12.3653-5.5332,12.3653-12.3633v-90.2714h4.6347v90.2714
		c0,6.8301,5.5372,12.3633,12.3633,12.3633c6.8282,0,12.3653-5.5332,12.3653-12.3633V85.9272
		c0.5918,1.2168,1.1894,2.6113,1.7793,4.2383c2.8203,7.8125,5.1914,20.6308,5.1816,40.6387c0,5.5136-0.1777,11.5722-0.5664,18.2226
		c-0.2559,4.4121,3.1113,8.1953,7.5215,8.4531c0.1582,0.0078,0.3164,0.0137,0.4726,0.0137c4.2051,0,7.7325-3.2832,7.9786-7.5332
		c0.4062-6.9336,0.5937-13.3008,0.5937-19.1562c-0.041-30.1817-4.8613-46.8868-11.4355-56.9317
		c-3.2832-4.9863-7.127-8.1836-10.6778-9.9551c-3.5488-1.789-6.6621-2.1425-8.4355-2.1367c-0.6387,0-1.1172,0.041-1.416,0.0781
		c-0.0059,0.002-0.0137,0.002-0.0196,0.0039H31.9805c-0.0059-0.0019-0.0117-0.0019-0.0156-0.0039
		c-0.3008-0.0351-0.7793-0.08-1.4141-0.08c-1.7754-0.0039-4.8906,0.3496-8.4375,2.1406c-5.3789,2.6641-11.1777,8.5-15.2363,18.8379
		C2.7715,93.1362,0.0137,108.144,0,130.8042c0,5.8535,0.1895,12.2226,0.5957,19.1582
		C0.8457,154.2124,4.3692,157.4936,8.5742,157.4936z"/>
	<path d="M53.6797,55.8608c10.6797-1.7529,18.8301-11.0215,18.8301-22.1973c0-1.0952-0.082-2.1709-0.2324-3.2241H27.7442
		c-0.1504,1.0532-0.2344,2.1289-0.2344,3.2241c0,11.1758,8.1504,20.4444,18.8301,22.1973c1.1953,0.1963,2.4199,0.3027,3.6699,0.3027
		S52.4864,56.0571,53.6797,55.8608z"/>
	<path d="M26.4766,22.4033c-1.666,0-3.0156,1.3525-3.0156,3.0185c0,1.668,1.3496,3.0176,3.0156,3.0176h0.4023h46.2617h0.4004
		c1.668,0,3.0176-1.3496,3.0176-3.0176c0-1.666-1.3496-3.0185-3.0176-3.0185h-0.414c-0.0176-0.6743-0.0625-1.3413-0.1348-2
		c-0.7695-6.8526-4.5293-12.7989-9.9473-16.5025V5.748c0,1.3184-1.0683,2.3887-2.3867,2.3887c-1.3183,0-2.3886-1.0703-2.3886-2.3887
		V1.4023C56.4141,0.6923,54.4473,0.2099,52.3965,0v5.748c0,1.3184-1.0684,2.3887-2.3867,2.3887
		c-1.3203,0-2.3887-1.0703-2.3887-2.3887V0.0004c-2.0488,0.21-4.0176,0.6929-5.873,1.4029V5.748
		c0,1.3184-1.0684,2.3887-2.3887,2.3887c-1.3184,0-2.3867-1.0703-2.3867-2.3887V3.9023c-5.416,3.7036-9.1758,9.6494-9.9434,16.501
		c-0.0742,0.6587-0.1172,1.3257-0.1347,2H26.4766z"/>
	<polygon points="211.9141,213.2192 196.6973,222.5107 200.4473,244.9648 235.0801,245.5429 246.209,228.8012 236.2989,212.8149 	
		"/>
	<polygon points="137.9395,217.7158 124.7344,225.7797 130.0489,244.6044 151.459,247.2246 167.6992,231.2382 153.6465,221.4453 	
		"/>
	<polygon points="270.8418,242.8784 265.3106,232.8227 258.9239,234.2773 250.9239,234.9121 245.7051,243.7197 258.3574,244.8525 	
		"/>
	<polygon points="173.5215,236.9126 172.418,244 180.0645,245.664 191.0606,243.9262 186.1895,235.0712 179.836,231.3002 	"/>
	<polygon points="94.461,236.9126 93.3574,244 101.0059,245.664 112.002,243.9262 107.1309,235.0712 100.7774,231.3002 	"/>
</g>
</svg>
